<svg width="600" height="128" viewBox="0 0 600 128" fill="none" xmlns="http://www.w3.org/2000/svg">
<path fill-rule="evenodd" clip-rule="evenodd" d="M172.375 115.476C76.8302 117.115 76.2522 116.662 73.3823 113.297C71.8342 111.482 57.9524 109.141 42.534 108.095C24.0669 106.843 12.9454 104.737 9.94374 101.924C7.43764 99.5757 4.17501 97.6543 2.69353 97.6543C1.21205 97.6543 0 95.0314 0 91.8257C0 87.1797 1.87648 85.997 9.24824 85.997C14.3347 85.997 18.4964 84.6856 18.4964 83.0827C18.4964 81.4798 16.0379 80.1684 13.0332 80.1684C5.13579 80.1684 2.85512 74.4054 10.59 73.9946C14.1645 73.8049 18.039 73.8049 19.2 73.9946C20.3611 74.1845 21.3111 73.0283 21.3111 71.4255C21.3111 69.8226 18.1446 68.5111 14.2744 68.5111C10.4042 68.5111 7.23773 67.1997 7.23773 65.5968C7.23773 63.9939 8.57385 62.6825 10.2068 62.6825C11.7739 62.6825 18.5439 60.095 25.5111 56.8513C22.001 56.2893 19.8893 55.5493 19.8893 54.7417C19.8893 53.1389 24.639 51.8095 30.4443 51.7876C33.6243 51.7756 37.4378 51.4902 40.8727 51.0505C44.7948 49.9269 49.0993 48.9192 53.919 48.0131L55.0726 47.6796L46.6287 45.7268C41.7976 44.6096 45.8512 43.7619 58.1549 43.2819C61.0903 43.0071 62.2928 41.4356 61.3903 39.0001C61.2321 38.5735 61.1516 38.1558 61.1451 37.7513C45.324 38.1414 29.9377 38.9254 22.704 40.0166C7.54121 42.304 3.21913 41.8875 6.5312 38.4581C9.36169 35.5274 29.3359 30.975 37.9679 31.2932C42.4929 31.4601 47.122 30.0439 48.2548 28.1462C49.3875 26.2484 54.5142 24.8194 59.6472 24.9705C60.913 25.0078 62.2012 24.977 63.4479 24.8896C61.6158 22.9791 63.083 22.1908 68.6631 19.5583C69.7342 19.053 70.7561 18.4568 71.6854 17.8126C66.7103 17.7601 59.997 17.8364 52.2578 18.0588C8.06567 19.3283 22.6165 15.0429 71.2673 12.4604C72.9682 12.3701 74.6696 12.2766 76.3623 12.1808C76.3709 12.1002 76.3753 12.021 76.3753 11.9434C76.3753 9.75631 80.4325 7.12672 85.3912 6.09985C93.0984 4.50383 93.609 3.90961 88.9095 2.00605C85.8859 0.781339 122.043 -0.115908 169.259 0.0121759C216.475 0.140224 249.407 1.16256 242.44 2.28394C231.619 4.02582 231.004 4.45431 238.218 5.22527C240.942 5.51637 258.405 5.88828 283.156 6.22626C307.907 5.88828 325.371 5.51637 328.095 5.22527C335.308 4.45431 334.693 4.02582 323.873 2.28394C316.906 1.16256 349.838 0.140224 397.054 0.0121759C444.27 -0.115908 480.427 0.781339 477.403 2.00605C472.704 3.90961 473.214 4.50383 480.922 6.09985C485.88 7.12672 489.937 9.75631 489.937 11.9434C489.937 12.021 489.942 12.1002 489.95 12.1808C491.643 12.2766 493.345 12.3701 495.045 12.4604C543.696 15.0429 558.247 19.3283 514.055 18.0588C506.316 17.8364 499.603 17.7601 494.627 17.8126C495.557 18.4568 496.579 19.053 497.65 19.5583C503.23 22.1908 504.697 22.9791 502.865 24.8896C504.112 24.977 505.4 25.0078 506.666 24.9705C511.799 24.8194 516.925 26.2484 518.058 28.1462C519.191 30.0439 523.82 31.4601 528.345 31.2932C534.266 31.0749 545.524 33.1484 552.925 35.4182C553.893 35.6505 554.637 35.8955 555.164 36.1537C557.43 36.9555 559.101 37.7536 559.782 38.4581C559.947 38.6295 560.094 38.7934 560.221 38.9497C562.41 39.658 565.024 40.1053 567.441 40.1053C574.267 40.1053 575.402 41.0892 574.179 45.9339C573.056 50.3783 574.092 51.7625 578.542 51.7625C581.75 51.7625 583.543 52.6256 582.524 53.6802C582.231 53.9836 582.075 54.4229 582.044 54.9481C593.138 55.7332 600.372 56.7863 599.687 57.9756C598.919 59.3062 592.668 61.2699 585.505 62.4733C585.57 63.0071 585.282 63.2482 584.618 63.0757C582.189 62.4438 574.937 65.6106 570.393 68.6314C570.218 69.8059 568.742 71.3021 566.559 72.6753C566.71 73.8576 568.864 74.1498 571.476 73.3087C575.167 72.1204 574.99 72.6264 570.772 75.3276C569.842 75.923 568.872 76.6442 567.935 77.4201C570.895 77.3142 574.556 77.1388 578.982 76.9002C593.678 76.1076 602.789 76.1939 599.229 77.092C594.429 78.3024 593.524 79.6547 595.729 82.3212C598.013 85.084 594.975 86.7089 582.625 89.3293C565.251 93.0162 554.233 96.9942 552.735 99.8959C555.865 100.973 558.106 102.477 558.106 103.888C558.106 104.15 557.151 104.386 555.421 104.589C555.238 108.115 546.091 112.169 532.345 114.216C523.482 115.535 518.134 116.796 520.46 117.018C523.921 117.349 523.824 117.962 519.921 120.401C517.3 122.04 507.494 122.842 498.131 122.185C487.967 121.47 481.125 122.134 481.15 123.833C481.203 127.363 436.029 128.119 399.536 125.201C346.284 120.942 332.995 120.403 341.794 122.86C348.771 124.807 347.366 125.215 333.874 125.159C324.854 125.122 316.903 124.166 316.204 123.036C315.599 122.055 313.056 121.234 308.377 120.56C301.805 121.543 297.49 122.462 296.866 123.107C296.062 123.939 292.238 124.621 288.368 124.621C279.508 124.621 281.837 121.931 292.415 119.944C293.412 119.757 294.387 119.558 295.304 119.357C281.274 118.506 259.831 118.109 229.8 118.1C196.293 118.089 177.953 117.261 172.375 115.476ZM545.539 53.5739C553.998 53.6849 562.395 53.9231 569.962 54.2638C570.388 52.0845 569.176 50.4376 567.254 50.5969C565.319 50.7572 556.453 51.1251 547.551 51.4138C543.668 51.5399 540.752 51.6895 538.682 51.9041C541.754 52.1518 544.273 52.7737 545.539 53.5739ZM53.6655 30.142C53.6655 29.4352 54.9322 28.0463 56.4803 27.0557C58.0284 26.065 59.2949 26.6434 59.2949 28.3408C59.2949 30.0383 58.0284 31.4271 56.4803 31.4271C54.9322 31.4271 53.6655 30.8488 53.6655 30.142ZM466.013 5.19826C465.056 3.59539 465.615 2.28394 467.254 2.28394C468.894 2.28394 470.235 3.59539 470.235 5.19826C470.235 6.80114 469.677 8.11259 468.994 8.11259C468.311 8.11259 466.97 6.80114 466.013 5.19826ZM385.092 3.0269C399.411 2.49796 422.843 2.49796 437.163 3.0269C451.483 3.55585 439.767 3.98859 411.127 3.98859C382.488 3.98859 370.772 3.55581 385.092 3.0269ZM512.647 30.142C512.647 29.4352 511.381 28.0463 509.832 27.0557C508.284 26.065 507.018 26.6434 507.018 28.3408C507.018 30.0383 508.284 31.4271 509.832 31.4271C511.381 31.4271 512.647 30.8488 512.647 30.142ZM100.3 5.19826C101.256 3.59539 100.698 2.28394 99.0583 2.28394C97.4189 2.28394 96.0775 3.59539 96.0775 5.19826C96.0775 6.80114 96.6361 8.11259 97.3188 8.11259C98.0013 8.11259 99.3428 6.80114 100.3 5.19826ZM181.221 3.0269C166.901 2.49796 143.469 2.49796 129.15 3.0269C114.83 3.55585 126.546 3.98859 155.185 3.98859C183.825 3.98859 195.541 3.55581 181.221 3.0269ZM98.0104 110.169C94.5274 109.474 88.8276 109.474 85.3444 110.169C81.8614 110.864 84.7112 111.432 91.6774 111.432C98.6437 111.432 101.494 110.864 98.0104 110.169Z" fill="#F5CEB9"/>
<path d="M232.879 68.8394C232.812 66.7004 234.015 64.7619 235.82 63.7592C238.16 62.4223 241.101 63.3581 243.374 64.3608C246.047 65.4972 248.587 66.9009 251.395 67.4357C254.269 67.9704 256.943 67.5694 259.283 65.8314C260.085 65.2298 260.887 64.4945 261.89 64.4277C261.956 64.4277 262.291 64.4945 262.424 64.5613C262.892 64.8287 262.892 64.8287 263.293 65.1629C264.63 66.3662 265.566 67.9704 266.97 69.1068C268.775 70.5774 270.98 70.9784 273.186 69.9758C275.125 69.1068 276.462 67.302 278.266 66.2993C279.804 65.4303 281.274 65.7645 282.812 66.4998C284.684 67.3688 286.355 68.572 288.226 69.5078C290.232 70.4437 292.304 71.0453 294.51 70.5105C295.713 70.2431 296.849 69.5747 297.919 68.8394C298.855 68.2378 299.79 67.5025 300.86 67.2351C302.665 66.7672 304.47 68.2378 306.007 69.2405C307.945 70.4437 310.218 71.3127 312.491 70.5774C314.697 69.8421 315.967 67.9036 317.905 66.7004C319.911 65.4303 322.183 66.4998 324.256 67.1014C325.526 67.5025 326.862 67.8367 328.199 67.8367C329.603 67.8367 330.94 67.3688 332.277 66.8341C333.614 66.2993 334.951 65.7645 336.354 65.564C337.892 65.3635 339.429 65.4303 340.967 65.4303C347.584 65.3635 354.202 65.2966 360.753 65.2298C362.357 65.2298 363.961 65.1629 365.566 65.1629C367.705 65.1629 367.705 61.8207 365.566 61.8207C358.881 61.8876 352.13 61.9544 345.445 62.0212C342.237 62.0881 338.895 61.8876 335.686 62.2886C334.149 62.4892 332.745 63.0239 331.341 63.6255C330.138 64.1603 328.935 64.5613 327.598 64.4277C324.991 64.1603 322.718 62.6897 320.044 62.6897C317.371 62.6897 315.499 64.2271 313.56 65.9651C312.892 66.5667 312.09 67.2351 311.221 67.4357C310.419 67.6362 309.683 67.3688 308.948 67.0346C306.943 66.0319 305.272 64.4945 303.066 64.0266C300.325 63.425 298.186 64.7619 295.98 66.1656C295.512 66.433 295.044 66.7672 294.51 66.9678C294.109 67.1683 293.507 67.302 293.24 67.302C292.304 67.3688 291.635 67.2351 290.633 66.8341C286.823 65.4303 283.48 61.8207 278.935 62.4892C276.595 62.8234 274.924 64.4945 273.186 65.8982C272.518 66.433 271.783 67.0346 270.914 67.1014C270.646 67.1683 270.379 67.1014 270.045 67.0346C269.844 66.9678 269.51 66.8341 269.176 66.5667C269.309 66.7004 268.908 66.2993 268.841 66.2325C268.708 66.0988 268.507 65.9651 268.373 65.7645C268.039 65.4303 267.772 65.0961 267.438 64.695C266.836 64.0266 266.301 63.2913 265.633 62.6229C263.895 60.9517 261.622 60.417 259.416 61.4865C258.28 62.0212 257.411 62.9571 256.275 63.5587C255.205 64.1603 253.935 64.2271 252.732 64.0934C249.924 63.7592 247.384 62.2886 244.844 61.2191C242.037 60.0159 238.895 59.0801 235.82 59.9491C233.347 60.6175 231.208 62.4892 230.205 64.8287C229.67 66.0319 229.336 67.302 229.403 68.6389C229.537 70.9784 232.879 70.9784 232.879 68.8394Z" fill="#CE9475"/>
<path d="M357.878 60.2833C361.488 61.3528 364.897 62.9571 368.039 64.9624C368.039 64.0266 368.039 63.0239 368.039 62.0881C363.828 64.0935 359.549 65.8983 355.205 67.5025C354.336 67.8368 353.801 68.6389 354.068 69.5747C354.269 70.3768 355.271 71.0453 356.14 70.7111C360.82 69.04 365.365 67.1015 369.777 64.9624C370.98 64.3608 370.779 62.6897 369.777 62.0881C366.368 59.8822 362.691 58.2111 358.814 57.0748C356.675 56.4732 355.806 59.6817 357.878 60.2833Z" fill="#CE9475"/>
<path d="M154.769 58.3409C154.83 57.4848 154.603 56.822 154.088 56.3523C153.58 55.8826 152.777 55.6477 151.678 55.6477C150.951 55.6477 150.33 55.7424 149.815 55.9318C149.3 56.1136 148.894 56.3712 148.599 56.7045C148.303 57.0303 148.118 57.4091 148.042 57.8409C147.974 58.1818 147.993 58.4848 148.099 58.75C148.205 59.0152 148.391 59.25 148.656 59.4545C148.928 59.6591 149.266 59.8371 149.667 59.9886C150.076 60.1402 150.534 60.2727 151.042 60.3864L152.951 60.8409C154.057 61.0909 155.016 61.4242 155.826 61.8409C156.644 62.25 157.307 62.7462 157.815 63.3295C158.322 63.9053 158.671 64.5682 158.86 65.3182C159.05 66.0682 159.065 66.9091 158.906 67.8409C158.663 69.3106 158.084 70.572 157.167 71.625C156.258 72.678 155.069 73.4848 153.599 74.0455C152.137 74.6061 150.436 74.8864 148.497 74.8864C146.557 74.8864 144.909 74.5947 143.553 74.0114C142.205 73.4205 141.228 72.5303 140.622 71.3409C140.016 70.1515 139.853 68.6515 140.133 66.8409H145.508C145.425 67.5909 145.519 68.2159 145.792 68.7159C146.072 69.2159 146.504 69.5947 147.088 69.8523C147.671 70.1098 148.375 70.2386 149.201 70.2386C149.959 70.2386 150.622 70.1364 151.19 69.9318C151.766 69.7273 152.224 69.4432 152.565 69.0795C152.913 68.7159 153.125 68.2992 153.201 67.8295C153.277 67.3977 153.205 67.0227 152.985 66.7045C152.773 66.3864 152.409 66.1098 151.894 65.875C151.387 65.6402 150.72 65.428 149.894 65.2386L147.565 64.6705C145.641 64.2008 144.182 63.4508 143.19 62.4205C142.205 61.3902 141.856 59.9924 142.144 58.2273C142.387 56.7803 142.985 55.5152 143.94 54.4318C144.902 53.3485 146.118 52.5076 147.588 51.9091C149.065 51.303 150.69 51 152.463 51C154.266 51 155.781 51.3068 157.008 51.9205C158.243 52.5265 159.133 53.3826 159.678 54.4886C160.231 55.5871 160.391 56.8712 160.156 58.3409H154.769Z" fill="#DEA88B"/>
<path d="M173.394 57.1364L172.701 61.2273H161.69L162.383 57.1364H173.394ZM165.372 52.9545H170.928L168.247 69.1023C168.194 69.4432 168.201 69.7197 168.269 69.9318C168.345 70.1364 168.481 70.2841 168.678 70.375C168.883 70.4583 169.133 70.5 169.428 70.5C169.633 70.5 169.86 70.4773 170.11 70.4318C170.36 70.3864 170.55 70.3523 170.678 70.3295L170.86 74.3409C170.565 74.4242 170.167 74.5189 169.667 74.625C169.175 74.7386 168.599 74.8106 167.94 74.8409C166.606 74.8939 165.504 74.7386 164.633 74.375C163.769 74.0038 163.159 73.428 162.803 72.6477C162.455 71.8674 162.387 70.8902 162.599 69.7159L165.372 52.9545Z" fill="#DEA88B"/>
<path d="M185.832 67.0568L187.491 57.1364H193.036L190.127 74.5909H184.832L185.366 71.3409H185.184C184.646 72.4091 183.855 73.2576 182.809 73.8864C181.764 74.5076 180.586 74.8182 179.275 74.8182C178.086 74.8182 177.086 74.5455 176.275 74C175.464 73.4545 174.889 72.6932 174.548 71.7159C174.214 70.7311 174.154 69.5795 174.366 68.2614L176.23 57.1364H181.786L180.116 67.1705C179.972 68.1174 180.097 68.8636 180.491 69.4091C180.892 69.9545 181.521 70.2273 182.377 70.2273C182.93 70.2273 183.449 70.1061 183.934 69.8636C184.419 69.6136 184.828 69.2538 185.161 68.7841C185.502 68.3068 185.726 67.7311 185.832 67.0568Z" fill="#DEA88B"/>
<path d="M421.769 58.3409C421.83 57.4848 421.603 56.822 421.088 56.3523C420.58 55.8826 419.777 55.6477 418.678 55.6477C417.951 55.6477 417.33 55.7424 416.815 55.9318C416.3 56.1136 415.894 56.3712 415.599 56.7045C415.303 57.0303 415.118 57.4091 415.042 57.8409C414.974 58.1818 414.993 58.4848 415.099 58.75C415.205 59.0152 415.391 59.25 415.656 59.4545C415.928 59.6591 416.266 59.8371 416.667 59.9886C417.076 60.1402 417.534 60.2727 418.042 60.3864L419.951 60.8409C421.057 61.0909 422.016 61.4242 422.826 61.8409C423.644 62.25 424.307 62.7462 424.815 63.3295C425.322 63.9053 425.671 64.5682 425.86 65.3182C426.05 66.0682 426.065 66.9091 425.906 67.8409C425.663 69.3106 425.084 70.572 424.167 71.625C423.258 72.678 422.069 73.4848 420.599 74.0455C419.137 74.6061 417.436 74.8864 415.497 74.8864C413.557 74.8864 411.909 74.5947 410.553 74.0114C409.205 73.4205 408.228 72.5303 407.622 71.3409C407.016 70.1515 406.853 68.6515 407.133 66.8409H412.508C412.425 67.5909 412.519 68.2159 412.792 68.7159C413.072 69.2159 413.504 69.5947 414.088 69.8523C414.671 70.1098 415.375 70.2386 416.201 70.2386C416.959 70.2386 417.622 70.1364 418.19 69.9318C418.766 69.7273 419.224 69.4432 419.565 69.0795C419.913 68.7159 420.125 68.2992 420.201 67.8295C420.277 67.3977 420.205 67.0227 419.985 66.7045C419.773 66.3864 419.409 66.1098 418.894 65.875C418.387 65.6402 417.72 65.428 416.894 65.2386L414.565 64.6705C412.641 64.2008 411.182 63.4508 410.19 62.4205C409.205 61.3902 408.856 59.9924 409.144 58.2273C409.387 56.7803 409.985 55.5152 410.94 54.4318C411.902 53.3485 413.118 52.5076 414.588 51.9091C416.065 51.303 417.69 51 419.463 51C421.266 51 422.781 51.3068 424.008 51.9205C425.243 52.5265 426.133 53.3826 426.678 54.4886C427.231 55.5871 427.391 56.8712 427.156 58.3409H421.769Z" fill="#DEA88B"/>
<path d="M440.144 67.0568L441.803 57.1364H447.349L444.44 74.5909H439.144L439.678 71.3409H439.497C438.959 72.4091 438.167 73.2576 437.122 73.8864C436.076 74.5076 434.898 74.8182 433.588 74.8182C432.398 74.8182 431.398 74.5455 430.588 74C429.777 73.4545 429.201 72.6932 428.86 71.7159C428.527 70.7311 428.466 69.5795 428.678 68.2614L430.542 57.1364H436.099L434.428 67.1705C434.284 68.1174 434.409 68.8636 434.803 69.4091C435.205 69.9545 435.834 70.2273 436.69 70.2273C437.243 70.2273 437.762 70.1061 438.247 69.8636C438.731 69.6136 439.141 69.2538 439.474 68.7841C439.815 68.3068 440.038 67.7311 440.144 67.0568Z" fill="#DEA88B"/>
<path d="M456.079 74.9205C454.238 74.9205 452.719 74.5417 451.522 73.7841C450.333 73.0265 449.499 71.9735 449.022 70.625C448.545 69.2689 448.458 67.7008 448.761 65.9205C449.049 64.1326 449.659 62.5644 450.59 61.2159C451.522 59.8598 452.712 58.803 454.159 58.0455C455.606 57.2879 457.242 56.9091 459.068 56.9091C460.681 56.9091 462.037 57.2008 463.136 57.7841C464.242 58.3674 465.041 59.1932 465.534 60.2614C466.034 61.322 466.181 62.5682 465.977 64H460.784C460.829 63.1136 460.647 62.4167 460.238 61.9091C459.829 61.3939 459.234 61.1364 458.454 61.1364C457.795 61.1364 457.189 61.3182 456.636 61.6818C456.09 62.0379 455.624 62.5682 455.238 63.2727C454.859 63.9697 454.587 64.8333 454.42 65.8636C454.253 66.8939 454.242 67.7652 454.386 68.4773C454.537 69.1818 454.821 69.7159 455.238 70.0795C455.662 70.4356 456.2 70.6136 456.852 70.6136C457.367 70.6136 457.844 70.5038 458.284 70.2841C458.723 70.0644 459.106 69.7424 459.431 69.3182C459.757 68.8864 460.011 68.3636 460.193 67.75H465.374C465.079 69.197 464.507 70.4583 463.659 71.5341C462.818 72.6023 461.753 73.4356 460.465 74.0341C459.177 74.625 457.715 74.9205 456.079 74.9205Z" fill="#DEA88B"/>
<path d="M475.173 74.9205C473.332 74.9205 471.813 74.5417 470.616 73.7841C469.427 73.0265 468.593 71.9735 468.116 70.625C467.639 69.2689 467.552 67.7008 467.855 65.9205C468.142 64.1326 468.752 62.5644 469.684 61.2159C470.616 59.8598 471.805 58.803 473.252 58.0455C474.699 57.2879 476.336 56.9091 478.161 56.9091C479.775 56.9091 481.131 57.2008 482.23 57.7841C483.336 58.3674 484.135 59.1932 484.627 60.2614C485.127 61.322 485.275 62.5682 485.07 64H479.877C479.923 63.1136 479.741 62.4167 479.332 61.9091C478.923 61.3939 478.328 61.1364 477.548 61.1364C476.889 61.1364 476.283 61.3182 475.73 61.6818C475.184 62.0379 474.718 62.5682 474.332 63.2727C473.953 63.9697 473.68 64.8333 473.514 65.8636C473.347 66.8939 473.336 67.7652 473.48 68.4773C473.631 69.1818 473.915 69.7159 474.332 70.0795C474.756 70.4356 475.294 70.6136 475.945 70.6136C476.461 70.6136 476.938 70.5038 477.377 70.2841C477.817 70.0644 478.199 69.7424 478.525 69.3182C478.851 68.8864 479.105 68.3636 479.286 67.75H484.468C484.173 69.197 483.601 70.4583 482.752 71.5341C481.911 72.6023 480.847 73.4356 479.559 74.0341C478.271 74.625 476.809 74.9205 475.173 74.9205Z" fill="#DEA88B"/>
<path d="M494.278 74.9205C492.452 74.9205 490.937 74.5606 489.732 73.8409C488.535 73.1136 487.695 72.0795 487.21 70.7386C486.725 69.3902 486.638 67.7879 486.948 65.9318C487.251 64.1288 487.869 62.553 488.801 61.2045C489.74 59.8485 490.922 58.7955 492.346 58.0455C493.77 57.2879 495.357 56.9091 497.107 56.9091C498.35 56.9091 499.452 57.1023 500.414 57.4886C501.376 57.875 502.172 58.4508 502.801 59.2159C503.429 59.9735 503.857 60.9053 504.085 62.0114C504.312 63.1174 504.304 64.3864 504.062 65.8182L503.846 67.2045H488.687L489.198 63.9773H499.198C499.289 63.3864 499.24 62.8598 499.051 62.3977C498.861 61.9356 498.554 61.5758 498.13 61.3182C497.713 61.053 497.202 60.9205 496.596 60.9205C495.982 60.9205 495.407 61.0644 494.869 61.3523C494.338 61.6326 493.888 62.0114 493.516 62.4886C493.145 62.9659 492.903 63.5038 492.789 64.1023L492.187 67.4091C492.066 68.1439 492.1 68.7727 492.289 69.2955C492.479 69.8182 492.804 70.2197 493.266 70.5C493.729 70.7727 494.323 70.9091 495.051 70.9091C495.535 70.9091 495.99 70.8447 496.414 70.7159C496.838 70.5795 497.217 70.3788 497.551 70.1136C497.891 69.8409 498.168 69.5114 498.38 69.125L503.448 69.2727C503.039 70.4167 502.407 71.4129 501.551 72.2614C500.695 73.1023 499.649 73.7576 498.414 74.2273C497.187 74.6894 495.808 74.9205 494.278 74.9205Z" fill="#DEA88B"/>
<path d="M522.661 62.4659L517.65 62.6023C517.658 62.2311 517.574 61.9053 517.4 61.625C517.226 61.3371 516.98 61.1136 516.661 60.9545C516.343 60.7955 515.964 60.7159 515.525 60.7159C514.813 60.7159 514.173 60.875 513.605 61.1932C513.044 61.5114 512.73 61.9242 512.661 62.4318C512.608 62.7045 512.684 62.9432 512.889 63.1477C513.093 63.3447 513.548 63.5189 514.252 63.6705L517.525 64.3068C519.207 64.6402 520.427 65.2197 521.184 66.0455C521.949 66.8636 522.222 67.947 522.002 69.2955C521.805 70.447 521.298 71.4432 520.48 72.2841C519.669 73.125 518.635 73.7765 517.377 74.2386C516.127 74.6932 514.745 74.9205 513.23 74.9205C510.669 74.9205 508.737 74.4053 507.434 73.375C506.139 72.3371 505.533 70.9621 505.616 69.25L511.025 69.1136C511.048 69.7576 511.264 70.2424 511.673 70.5682C512.089 70.8864 512.654 71.053 513.366 71.0682C514.146 71.0833 514.82 70.9205 515.389 70.5795C515.957 70.2386 516.275 69.8182 516.343 69.3182C516.389 68.9924 516.279 68.7386 516.014 68.5568C515.756 68.375 515.275 68.2121 514.57 68.0682L511.616 67.4886C509.919 67.1629 508.692 66.5492 507.934 65.6477C507.184 64.7386 506.927 63.5795 507.161 62.1705C507.358 61.0492 507.82 60.0985 508.548 59.3182C509.283 58.5303 510.241 57.9318 511.423 57.5227C512.612 57.1136 513.968 56.9091 515.491 56.9091C517.93 56.9091 519.771 57.4053 521.014 58.3977C522.264 59.3826 522.813 60.7386 522.661 62.4659Z" fill="#DEA88B"/>
<path d="M541.068 62.4659L536.056 62.6023C536.064 62.2311 535.981 61.9053 535.806 61.625C535.632 61.3371 535.386 61.1136 535.068 60.9545C534.749 60.7955 534.371 60.7159 533.931 60.7159C533.219 60.7159 532.579 60.875 532.011 61.1932C531.45 61.5114 531.136 61.9242 531.068 62.4318C531.015 62.7045 531.09 62.9432 531.295 63.1477C531.499 63.3447 531.954 63.5189 532.659 63.6705L535.931 64.3068C537.613 64.6402 538.833 65.2197 539.59 66.0455C540.355 66.8636 540.628 67.947 540.409 69.2955C540.212 70.447 539.704 71.4432 538.886 72.2841C538.075 73.125 537.041 73.7765 535.784 74.2386C534.534 74.6932 533.151 74.9205 531.636 74.9205C529.075 74.9205 527.143 74.4053 525.84 73.375C524.545 72.3371 523.939 70.9621 524.022 69.25L529.431 69.1136C529.454 69.7576 529.67 70.2424 530.079 70.5682C530.496 70.8864 531.06 71.053 531.772 71.0682C532.552 71.0833 533.227 70.9205 533.795 70.5795C534.363 70.2386 534.681 69.8182 534.749 69.3182C534.795 68.9924 534.685 68.7386 534.42 68.5568C534.162 68.375 533.681 68.2121 532.977 68.0682L530.022 67.4886C528.325 67.1629 527.098 66.5492 526.34 65.6477C525.59 64.7386 525.333 63.5795 525.568 62.1705C525.765 61.0492 526.227 60.0985 526.954 59.3182C527.689 58.5303 528.647 57.9318 529.829 57.5227C531.018 57.1136 532.374 56.9091 533.897 56.9091C536.337 56.9091 538.177 57.4053 539.42 58.3977C540.67 59.3826 541.219 60.7386 541.068 62.4659Z" fill="#DEA88B"/>
</svg>
