<svg width="64" height="64" viewBox="0 0 64 64" fill="none" xmlns="http://www.w3.org/2000/svg">
<path d="M15.7602 23.2529V41.7471H11.9625L4.59333 31.0732H4.47578V41.7471H0V23.2529H3.85188L11.1397 33.9087H11.2934V23.2529H15.7602Z" fill="#E3804A"/>
<path d="M36.0526 32.5C36.0526 34.5349 35.6608 36.2597 34.8772 37.6744C34.0935 39.0892 33.0326 40.1638 31.6944 40.8983C30.3622 41.6328 28.8673 42 27.2096 42C25.5459 42 24.0479 41.6298 22.7157 40.8893C21.3835 40.1488 20.3256 39.0741 19.542 37.6654C18.7644 36.2506 18.3756 34.5288 18.3756 32.5C18.3756 30.4651 18.7644 28.7403 19.542 27.3256C20.3256 25.9108 21.3835 24.8362 22.7157 24.1017C24.0479 23.3672 25.5459 23 27.2096 23C28.8673 23 30.3622 23.3672 31.6944 24.1017C33.0326 24.8362 34.0935 25.9108 34.8772 27.3256C35.6608 28.7403 36.0526 30.4651 36.0526 32.5ZM31.4774 32.5C31.4774 31.2959 31.3056 30.2785 30.962 29.4477C30.6244 28.6169 30.1362 27.9878 29.4972 27.5604C28.8643 27.1329 28.1017 26.9192 27.2096 26.9192C26.3235 26.9192 25.5609 27.1329 24.922 27.5604C24.283 27.9878 23.7917 28.6169 23.4481 29.4477C23.1105 30.2785 22.9418 31.2959 22.9418 32.5C22.9418 33.7041 23.1105 34.7215 23.4481 35.5523C23.7917 36.3831 24.283 37.0122 24.922 37.4396C25.5609 37.8671 26.3235 38.0808 27.2096 38.0808C28.1017 38.0808 28.8643 37.8671 29.4972 37.4396C30.1362 37.0122 30.6244 36.3831 30.962 35.5523C31.3056 34.7215 31.4774 33.7041 31.4774 32.5Z" fill="#E3804A"/>
<path d="M42.1854 41.7471L36.7963 23.2529H41.7423L44.5363 35.3717H44.69L47.8818 23.2529H51.9145L55.1064 35.3988H55.2601L58.0631 23.2529H63L57.62 41.7471H53.307L49.9705 30.5314H49.8258L46.4893 41.7471H42.1854Z" fill="#E3804A"/>
<path d="M19.1678 54C19.1678 56.1229 18.7448 57.929 17.8986 59.4183C17.0592 60.9075 15.9132 62.045 14.4608 62.8308C13.0151 63.6103 11.3894 64 9.58391 64C7.76506 64 6.13277 63.6071 4.68702 62.8213C3.24127 62.0355 2.09867 60.898 1.2592 59.4087C0.419733 57.9195 0 56.1166 0 54C0 51.8771 0.419733 50.071 1.2592 48.5818C2.09867 47.0925 3.24127 45.9582 4.68702 45.1787C6.13277 44.3929 7.76506 44 9.58391 44C11.3894 44 13.0151 44.3929 14.4608 45.1787C15.9132 45.9582 17.0592 47.0925 17.8986 48.5818C18.7448 50.071 19.1678 51.8771 19.1678 54ZM14.7806 54C14.7806 52.6248 14.5641 51.4651 14.131 50.5209C13.7046 49.5767 13.1017 48.8606 12.3222 48.3726C11.5427 47.8847 10.6299 47.6407 9.58391 47.6407C8.53791 47.6407 7.62515 47.8847 6.84565 48.3726C6.06614 48.8606 5.45986 49.5767 5.0268 50.5209C4.60041 51.4651 4.38721 52.6248 4.38721 54C4.38721 55.3752 4.60041 56.5349 5.0268 57.4791C5.45986 58.4233 6.06614 59.1394 6.84565 59.6274C7.62515 60.1153 8.53791 60.3593 9.58391 60.3593C10.6299 60.3593 11.5427 60.1153 12.3222 59.6274C13.1017 59.1394 13.7046 58.4233 14.131 57.4791C14.5641 56.5349 14.7806 55.3752 14.7806 54Z" fill="black"/>
<path d="M22.3733 63.7338V44.2662H30.4481C31.9938 44.2662 33.313 44.5292 34.4056 45.0551C35.5049 45.5748 36.3411 46.3131 36.914 47.27C37.4937 48.2205 37.7835 49.339 37.7835 50.6255C37.7835 51.9183 37.4903 53.0304 36.904 53.962C36.3178 54.8872 35.4683 55.597 34.3557 56.0913C33.2497 56.5856 31.9106 56.8327 30.3382 56.8327H24.9317V53.5247H29.6387C30.4648 53.5247 31.151 53.417 31.6974 53.2015C32.2437 52.9861 32.6501 52.6629 32.9166 52.2319C33.1897 51.801 33.3263 51.2655 33.3263 50.6255C33.3263 49.9791 33.1897 49.4341 32.9166 48.9905C32.6501 48.5469 32.2403 48.211 31.6874 47.9829C31.141 47.7484 30.4515 47.6312 29.6187 47.6312H26.7005V63.7338H22.3733ZM33.4263 54.8745L38.513 63.7338H33.7361L28.7592 54.8745H33.4263Z" fill="black"/>
<path d="M54.4129 50.5589C54.273 50.0963 54.0765 49.6876 53.8233 49.3327C53.5701 48.9715 53.2603 48.6673 52.8939 48.4202C52.5341 48.1667 52.121 47.9734 51.6547 47.8403C51.195 47.7072 50.6853 47.6407 50.1256 47.6407C49.0796 47.6407 48.1602 47.8878 47.3674 48.3821C46.5812 48.8764 45.9683 49.5957 45.5286 50.5399C45.0888 51.4778 44.869 52.6248 44.869 53.981C44.869 55.3371 45.0855 56.4905 45.5186 57.4411C45.9516 58.3916 46.5646 59.1172 47.3574 59.6179C48.1502 60.1122 49.0863 60.3593 50.1656 60.3593C51.145 60.3593 51.9811 60.1945 52.674 59.865C53.3736 59.5292 53.9066 59.057 54.273 58.4487C54.6461 57.8403 54.8326 57.121 54.8326 56.2909L55.7121 56.4144H50.4354V53.3156H59V55.7681C59 57.4791 58.6202 58.9493 57.8607 60.1787C57.1012 61.4018 56.0552 62.346 54.7227 63.0114C53.3902 63.6705 51.8645 64 50.1456 64C48.2268 64 46.5412 63.5976 45.0888 62.7928C43.6364 61.9816 42.5038 60.8314 41.691 59.3422C40.8848 57.8466 40.4818 56.0722 40.4818 54.019C40.4818 52.4411 40.7216 51.0342 41.2013 49.7985C41.6877 48.5564 42.3672 47.5044 43.24 46.6426C44.1128 45.7807 45.1288 45.1248 46.2881 44.6749C47.4473 44.225 48.7032 44 50.0557 44C51.2149 44 52.2943 44.1616 53.2936 44.4848C54.293 44.8016 55.1791 45.2516 55.9519 45.8346C56.7314 46.4176 57.3677 47.1115 57.8607 47.9163C58.3537 48.7148 58.6702 49.5957 58.8101 50.5589H54.4129Z" fill="black"/>
<path d="M19.1678 10C19.1678 12.1229 18.7448 13.929 17.8986 15.4183C17.0592 16.9075 15.9132 18.045 14.4608 18.8308C13.0151 19.6103 11.3894 20 9.58391 20C7.76506 20 6.13277 19.6071 4.68702 18.8213C3.24127 18.0355 2.09867 16.898 1.2592 15.4087C0.419733 13.9195 0 12.1166 0 10C0 7.87706 0.419733 6.07098 1.2592 4.58175C2.09867 3.09252 3.24127 1.95818 4.68702 1.17871C6.13277 0.392903 7.76506 0 9.58391 0C11.3894 0 13.0151 0.392903 14.4608 1.17871C15.9132 1.95818 17.0592 3.09252 17.8986 4.58175C18.7448 6.07098 19.1678 7.87706 19.1678 10ZM14.7806 10C14.7806 8.62484 14.5641 7.46515 14.131 6.52091C13.7046 5.57668 13.1017 4.86058 12.3222 4.37262C11.5427 3.88467 10.6299 3.64069 9.58391 3.64069C8.53791 3.64069 7.62515 3.88467 6.84565 4.37262C6.06614 4.86058 5.45986 5.57668 5.0268 6.52091C4.60041 7.46515 4.38721 8.62484 4.38721 10C4.38721 11.3752 4.60041 12.5349 5.0268 13.4791C5.45986 14.4233 6.06614 15.1394 6.84565 15.6274C7.62515 16.1153 8.53791 16.3593 9.58391 16.3593C10.6299 16.3593 11.5427 16.1153 12.3222 15.6274C13.1017 15.1394 13.7046 14.4233 14.131 13.4791C14.5641 12.5349 14.7806 11.3752 14.7806 10Z" fill="black"/>
<path d="M22.3733 19.7338V0.26616H30.4481C31.9938 0.26616 33.313 0.529152 34.4056 1.05513C35.5049 1.57478 36.3411 2.31306 36.914 3.26996C37.4937 4.22053 37.7835 5.33904 37.7835 6.62548C37.7835 7.91825 37.4903 9.03042 36.904 9.96198C36.3178 10.8872 35.4683 11.597 34.3557 12.0913C33.2497 12.5856 31.9106 12.8327 30.3382 12.8327H24.9317V9.52472H29.6387C30.4648 9.52472 31.151 9.41698 31.6974 9.20152C32.2437 8.98606 32.6501 8.66286 32.9166 8.23194C33.1897 7.80101 33.3263 7.26553 33.3263 6.62548C33.3263 5.97909 33.1897 5.43409 32.9166 4.99049C32.6501 4.54689 32.2403 4.21103 31.6874 3.98289C31.141 3.74842 30.4515 3.63118 29.6187 3.63118H26.7005V19.7338H22.3733ZM33.4263 10.8745L38.513 19.7338H33.7361L28.7592 10.8745H33.4263Z" fill="black"/>
<path d="M54.4129 6.55894C54.273 6.09632 54.0765 5.68758 53.8233 5.3327C53.5701 4.97148 53.2603 4.6673 52.8939 4.42015C52.5341 4.16667 52.121 3.97338 51.6547 3.8403C51.195 3.70723 50.6853 3.64069 50.1256 3.64069C49.0796 3.64069 48.1602 3.88783 47.3674 4.38213C46.5812 4.87643 45.9683 5.59569 45.5286 6.53992C45.0888 7.47782 44.869 8.62484 44.869 9.98099C44.869 11.3371 45.0855 12.4905 45.5186 13.4411C45.9516 14.3916 46.5646 15.1172 47.3574 15.6179C48.1502 16.1122 49.0863 16.3593 50.1656 16.3593C51.145 16.3593 51.9811 16.1945 52.674 15.865C53.3736 15.5292 53.9066 15.057 54.273 14.4487C54.6461 13.8403 54.8326 13.121 54.8326 12.2909L55.7121 12.4144H50.4354V9.31559H59V11.7681C59 13.4791 58.6202 14.9493 57.8607 16.1787C57.1012 17.4018 56.0552 18.346 54.7227 19.0114C53.3902 19.6705 51.8645 20 50.1456 20C48.2268 20 46.5412 19.5976 45.0888 18.7928C43.6364 17.9816 42.5038 16.8314 41.691 15.3422C40.8848 13.8466 40.4818 12.0722 40.4818 10.019C40.4818 8.44106 40.7216 7.03422 41.2013 5.79848C41.6877 4.5564 42.3672 3.50444 43.24 2.64259C44.1128 1.78074 45.1288 1.12484 46.2881 0.674905C47.4473 0.224969 48.7032 0 50.0557 0C51.2149 0 52.2943 0.161597 53.2936 0.484792C54.293 0.801648 55.1791 1.25158 55.9519 1.8346C56.7314 2.41762 57.3677 3.11153 57.8607 3.91635C58.3537 4.71483 58.6702 5.59569 58.8101 6.55894H54.4129Z" fill="black"/>
</svg>
