<svg width="156" height="76" viewBox="0 0 156 76" fill="none" xmlns="http://www.w3.org/2000/svg">
<path d="M12.4493 30.3698V44.9976H9.4495L3.62838 36.5552H3.53553V44.9976H0V30.3698H3.04269L8.79953 38.7979H8.92095V30.3698H12.4493Z" fill="black"/>
<path d="M28.4788 37.6837C28.4788 39.2931 28.1693 40.6573 27.5503 41.7763C26.9313 42.8953 26.0933 43.7453 25.0362 44.3262C23.9838 44.9071 22.8029 45.1976 21.4935 45.1976C20.1793 45.1976 18.996 44.9047 17.9437 44.3191C16.8914 43.7334 16.0557 42.8834 15.4367 41.7692C14.8224 40.6502 14.5153 39.2884 14.5153 37.6837C14.5153 36.0743 14.8224 34.71 15.4367 33.5911C16.0557 32.4721 16.8914 31.6221 17.9437 31.0412C18.996 30.4603 20.1793 30.1698 21.4935 30.1698C22.8029 30.1698 23.9838 30.4603 25.0362 31.0412C26.0933 31.6221 26.9313 32.4721 27.5503 33.5911C28.1693 34.71 28.4788 36.0743 28.4788 37.6837ZM24.8647 37.6837C24.8647 36.7314 24.729 35.9266 24.4576 35.2695C24.191 34.6124 23.8053 34.1148 23.3005 33.7768C22.8006 33.4387 22.1982 33.2696 21.4935 33.2696C20.7935 33.2696 20.1912 33.4387 19.6864 33.7768C19.1817 34.1148 18.7936 34.6124 18.5222 35.2695C18.2556 35.9266 18.1222 36.7314 18.1222 37.6837C18.1222 38.636 18.2556 39.4407 18.5222 40.0979C18.7936 40.755 19.1817 41.2526 19.6864 41.5906C20.1912 41.9287 20.7935 42.0977 21.4935 42.0977C22.1982 42.0977 22.8006 41.9287 23.3005 41.5906C23.8053 41.2526 24.191 40.755 24.4576 40.0979C24.729 39.4407 24.8647 38.636 24.8647 37.6837Z" fill="black"/>
<path d="M33.3232 44.9976L29.0663 30.3698H32.9732L35.1803 39.955H35.3017L37.823 30.3698H41.0085L43.5298 39.9764H43.6512L45.8654 30.3698H49.7652L45.5154 44.9976H42.1085L39.4729 36.1266H39.3586L36.723 44.9976H33.3232Z" fill="black"/>
<path d="M65.5667 30.3698V44.9976H62.5669L56.7458 36.5552H56.6529V44.9976H53.1174V30.3698H56.1601L61.9169 38.7979H62.0384V30.3698H65.5667Z" fill="#F28245"/>
<path d="M81.5962 37.6837C81.5962 39.2931 81.2867 40.6573 80.6677 41.7763C80.0487 42.8953 79.2107 43.7453 78.1536 44.3262C77.1012 44.9071 75.9204 45.1976 74.6109 45.1976C73.2967 45.1976 72.1134 44.9047 71.0611 44.319C70.0088 43.7334 69.1731 42.8834 68.5541 41.7692C67.9398 40.6502 67.6327 39.2884 67.6327 37.6837C67.6327 36.0742 67.9398 34.71 68.5541 33.591C69.1731 32.4721 70.0088 31.6221 71.0611 31.0412C72.1134 30.4603 73.2967 30.1698 74.6109 30.1698C75.9204 30.1698 77.1012 30.4603 78.1536 31.0412C79.2107 31.6221 80.0487 32.4721 80.6677 33.591C81.2867 34.71 81.5962 36.0742 81.5962 37.6837ZM77.9821 37.6837C77.9821 36.7314 77.8464 35.9266 77.575 35.2695C77.3084 34.6124 76.9227 34.1148 76.4179 33.7767C75.918 33.4387 75.3156 33.2696 74.6109 33.2696C73.9109 33.2696 73.3086 33.4387 72.8039 33.7767C72.2991 34.1148 71.911 34.6124 71.6396 35.2695C71.373 35.9266 71.2396 36.7314 71.2396 37.6837C71.2396 38.636 71.373 39.4407 71.6396 40.0978C71.911 40.7549 72.2991 41.2525 72.8039 41.5906C73.3086 41.9287 73.9109 42.0977 74.6109 42.0977C75.3156 42.0977 75.918 41.9287 76.4179 41.5906C76.9227 41.2525 77.3084 40.7549 77.575 40.0978C77.8464 39.4407 77.9821 38.636 77.9821 37.6837Z" fill="#F28245"/>
<path d="M86.4406 44.9976L82.1837 30.3698H86.0906L88.2977 39.955H88.4191L90.9404 30.3698H94.1259L96.6472 39.9764H96.7686L98.9828 30.3698H102.883L98.6328 44.9976H95.2259L92.5903 36.1266H92.476L89.8404 44.9976H86.4406Z" fill="#F28245"/>
<path d="M118.684 30.3698V44.9976H115.684L109.863 36.5552H109.77V44.9976H106.235V30.3698H109.277L115.034 38.7979H115.156V30.3698H118.684Z" fill="black"/>
<path d="M134.714 37.6837C134.714 39.2931 134.404 40.6573 133.785 41.7763C133.166 42.8953 132.328 43.7453 131.271 44.3262C130.219 44.9071 129.038 45.1976 127.728 45.1976C126.414 45.1976 125.231 44.9047 124.178 44.319C123.126 43.7334 122.29 42.8834 121.671 41.7692C121.057 40.6502 120.75 39.2884 120.75 37.6837C120.75 36.0742 121.057 34.71 121.671 33.591C122.29 32.4721 123.126 31.6221 124.178 31.0412C125.231 30.4603 126.414 30.1698 127.728 30.1698C129.038 30.1698 130.219 30.4603 131.271 31.0412C132.328 31.6221 133.166 32.4721 133.785 33.591C134.404 34.71 134.714 36.0742 134.714 37.6837ZM131.1 37.6837C131.1 36.7314 130.964 35.9266 130.692 35.2695C130.426 34.6124 130.04 34.1148 129.535 33.7767C129.035 33.4387 128.433 33.2696 127.728 33.2696C127.028 33.2696 126.426 33.4387 125.921 33.7767C125.417 34.1148 125.028 34.6124 124.757 35.2695C124.49 35.9266 124.357 36.7314 124.357 37.6837C124.357 38.636 124.49 39.4407 124.757 40.0978C125.028 40.7549 125.417 41.2525 125.921 41.5906C126.426 41.9287 127.028 42.0977 127.728 42.0977C128.433 42.0977 129.035 41.9287 129.535 41.5906C130.04 41.2525 130.426 40.7549 130.692 40.0978C130.964 39.4407 131.1 38.636 131.1 37.6837Z" fill="black"/>
<path d="M139.558 44.9976L135.301 30.3698H139.208L141.415 39.955H141.536L144.058 30.3698H147.243L149.765 39.9764H149.886L152.1 30.3698H156L151.75 44.9976H148.343L145.708 36.1266H145.593L142.958 44.9976H139.558Z" fill="black"/>
<path d="M47.5991 17.695V12.9846V5.42333V3.68659L43.9128 7.37294H48.6231H56.1844H57.9212C58.8632 7.37294 59.8627 6.96334 60.5263 6.29159C61.1652 5.65261 61.6486 4.60398 61.6076 3.68647C61.5667 2.73619 61.2554 1.74495 60.5263 1.08135C59.8054 0.417799 58.9206 0 57.9212 0H53.2108H45.6495H43.9128C41.9221 0 40.2264 1.68761 40.2264 3.68635V8.39671V15.958V17.6947C40.2264 18.6368 40.636 19.6363 41.3078 20.2999C41.9467 20.9388 42.9954 21.4222 43.9129 21.3812C44.8632 21.3403 45.8544 21.029 46.518 20.2999C47.1816 19.579 47.5993 18.6942 47.5993 17.6947L47.5991 17.695Z" fill="black"/>
<path d="M57.9216 67.8305H53.2113H45.65H43.9132L47.5996 71.5168V66.8065V59.2452V57.5084C47.5996 56.5664 47.19 55.5669 46.5182 54.9033C45.8793 54.2644 44.8306 53.781 43.9131 53.822C42.9628 53.8629 41.9716 54.1742 41.308 54.9033C40.6444 55.6242 40.2266 56.509 40.2266 57.5084V62.2188V69.7801V71.5168C40.2266 73.5075 41.9142 75.2032 43.913 75.2032H48.6233H56.1846H57.9214C58.8635 75.2032 59.8629 74.7936 60.5265 74.1218C61.1655 73.4829 61.6488 72.4342 61.6079 71.5167C61.5669 70.5664 61.2556 69.5752 60.5265 68.9116C59.8056 68.2481 58.9208 67.8303 57.9214 67.8303L57.9216 67.8305Z" fill="black"/>
<path d="M97.7346 7.37294H102.445H110.006H111.743L108.057 3.68659V8.39695V15.9582V17.695C108.057 18.6371 108.466 19.6365 109.138 20.3001C109.777 20.9391 110.826 21.4224 111.743 21.3815C112.693 21.3405 113.685 21.0292 114.348 20.3001C115.012 19.5792 115.43 18.6944 115.43 17.695V12.9846V5.42333V3.68659C115.43 1.69594 113.742 0.000238419 111.743 0.000238419H107.033H99.4716H97.7349C96.7928 0.000238419 95.7933 0.409843 95.1297 1.08159C94.4908 1.72056 94.0074 2.7692 94.0484 3.68671C94.0893 4.63699 94.4006 5.62822 95.1297 6.29182C95.8506 6.95538 96.7354 7.37318 97.7349 7.37318L97.7346 7.37294Z" fill="black"/>
<path d="M108.057 57.508V62.2183V69.7796V71.5164L111.743 67.83H107.033H99.4718H97.7351C96.793 67.83 95.7936 68.2396 95.13 68.9114C94.491 69.5504 94.0077 70.599 94.0486 71.5165C94.0896 72.4668 94.4009 73.458 95.13 74.1216C95.8509 74.7852 96.7357 75.203 97.7351 75.203H102.445H110.007H111.743C113.734 75.203 115.43 73.5154 115.43 71.5166V66.8063V59.245V57.5082C115.43 56.5661 115.02 55.5667 114.348 54.9031C113.71 54.2641 112.661 53.7808 111.743 53.8217C110.793 53.8627 109.802 54.174 109.138 54.9031C108.475 55.624 108.057 56.5088 108.057 57.5082L108.057 57.508Z" fill="black"/>
</svg>
