<svg width="64" height="64" viewBox="0 0 64 64" fill="none" xmlns="http://www.w3.org/2000/svg">
<path d="M15.7602 23.2529V41.7471H11.9625L4.59333 31.0732H4.47578V41.7471H0V23.2529H3.85188L11.1397 33.9087H11.2934V23.2529H15.7602Z" fill="#E3804A"/>
<path d="M36.0526 32.5C36.0526 34.5349 35.6608 36.2597 34.8772 37.6744C34.0935 39.0892 33.0326 40.1638 31.6944 40.8983C30.3622 41.6328 28.8673 42 27.2096 42C25.5459 42 24.0479 41.6298 22.7157 40.8893C21.3835 40.1488 20.3256 39.0741 19.542 37.6654C18.7644 36.2506 18.3756 34.5288 18.3756 32.5C18.3756 30.4651 18.7644 28.7403 19.542 27.3256C20.3256 25.9108 21.3835 24.8362 22.7157 24.1017C24.0479 23.3672 25.5459 23 27.2096 23C28.8673 23 30.3622 23.3672 31.6944 24.1017C33.0326 24.8362 34.0935 25.9108 34.8772 27.3256C35.6608 28.7403 36.0526 30.4651 36.0526 32.5ZM31.4774 32.5C31.4774 31.2959 31.3056 30.2785 30.962 29.4477C30.6244 28.6169 30.1362 27.9878 29.4972 27.5604C28.8643 27.1329 28.1017 26.9192 27.2096 26.9192C26.3235 26.9192 25.5609 27.1329 24.922 27.5604C24.283 27.9878 23.7917 28.6169 23.4481 29.4477C23.1105 30.2785 22.9418 31.2959 22.9418 32.5C22.9418 33.7041 23.1105 34.7215 23.4481 35.5523C23.7917 36.3831 24.283 37.0122 24.922 37.4396C25.5609 37.8671 26.3235 38.0808 27.2096 38.0808C28.1017 38.0808 28.8643 37.8671 29.4972 37.4396C30.1362 37.0122 30.6244 36.3831 30.962 35.5523C31.3056 34.7215 31.4774 33.7041 31.4774 32.5Z" fill="#E3804A"/>
<path d="M42.1854 41.7471L36.7963 23.2529H41.7423L44.5363 35.3717H44.69L47.8818 23.2529H51.9145L55.1064 35.3988H55.2601L58.0631 23.2529H63L57.62 41.7471H53.307L49.9705 30.5314H49.8258L46.4893 41.7471H42.1854Z" fill="#E3804A"/>
<path d="M15.7602 0.252852V18.7471H11.9625L4.59333 8.07319H4.47578V18.7471H0V0.252852H3.85188L11.1397 10.9087H11.2934V0.252852H15.7602Z" fill="black"/>
<path d="M36.0526 9.5C36.0526 11.5349 35.6608 13.2597 34.8772 14.6744C34.0935 16.0892 33.0326 17.1638 31.6944 17.8983C30.3622 18.6328 28.8673 19 27.2096 19C25.5459 19 24.0479 18.6298 22.7157 17.8893C21.3835 17.1488 20.3256 16.0741 19.542 14.6654C18.7644 13.2506 18.3756 11.5288 18.3756 9.5C18.3756 7.46515 18.7644 5.74034 19.542 4.32557C20.3256 2.91081 21.3835 1.83619 22.7157 1.10171C24.0479 0.367237 25.5459 0 27.2096 0C28.8673 0 30.3622 0.367237 31.6944 1.10171C33.0326 1.83619 34.0935 2.91081 34.8772 4.32557C35.6608 5.74034 36.0526 7.46515 36.0526 9.5ZM31.4774 9.5C31.4774 8.29594 31.3056 7.27852 30.962 6.44772C30.6244 5.61692 30.1362 4.9878 29.4972 4.56036C28.8643 4.13292 28.1017 3.9192 27.2096 3.9192C26.3235 3.9192 25.5609 4.13292 24.922 4.56036C24.283 4.9878 23.7917 5.61692 23.4481 6.44772C23.1105 7.27852 22.9418 8.29594 22.9418 9.5C22.9418 10.7041 23.1105 11.7215 23.4481 12.5523C23.7917 13.3831 24.283 14.0122 24.922 14.4396C25.5609 14.8671 26.3235 15.0808 27.2096 15.0808C28.1017 15.0808 28.8643 14.8671 29.4972 14.4396C30.1362 14.0122 30.6244 13.3831 30.962 12.5523C31.3056 11.7215 31.4774 10.7041 31.4774 9.5Z" fill="black"/>
<path d="M42.1854 18.7471L36.7963 0.252852H41.7423L44.5363 12.3717H44.69L47.8818 0.252852H51.9145L55.1064 12.3988H55.2601L58.0631 0.252852H63L57.62 18.7471H53.307L49.9705 7.53137H49.8258L46.4893 18.7471H42.1854Z" fill="black"/>
<path d="M15.7602 45.2529V63.7471H11.9625L4.59333 53.0732H4.47578V63.7471H0V45.2529H3.85188L11.1397 55.9087H11.2934V45.2529H15.7602Z" fill="black"/>
<path d="M36.0526 54.5C36.0526 56.5349 35.6608 58.2597 34.8772 59.6744C34.0935 61.0892 33.0326 62.1638 31.6944 62.8983C30.3622 63.6328 28.8673 64 27.2096 64C25.5459 64 24.0479 63.6298 22.7157 62.8893C21.3835 62.1488 20.3256 61.0741 19.542 59.6654C18.7644 58.2506 18.3756 56.5288 18.3756 54.5C18.3756 52.4651 18.7644 50.7403 19.542 49.3256C20.3256 47.9108 21.3835 46.8362 22.7157 46.1017C24.0479 45.3672 25.5459 45 27.2096 45C28.8673 45 30.3622 45.3672 31.6944 46.1017C33.0326 46.8362 34.0935 47.9108 34.8772 49.3256C35.6608 50.7403 36.0526 52.4651 36.0526 54.5ZM31.4774 54.5C31.4774 53.2959 31.3056 52.2785 30.962 51.4477C30.6244 50.6169 30.1362 49.9878 29.4972 49.5604C28.8643 49.1329 28.1017 48.9192 27.2096 48.9192C26.3235 48.9192 25.5609 49.1329 24.922 49.5604C24.283 49.9878 23.7917 50.6169 23.4481 51.4477C23.1105 52.2785 22.9418 53.2959 22.9418 54.5C22.9418 55.7041 23.1105 56.7215 23.4481 57.5523C23.7917 58.3831 24.283 59.0122 24.922 59.4396C25.5609 59.8671 26.3235 60.0808 27.2096 60.0808C28.1017 60.0808 28.8643 59.8671 29.4972 59.4396C30.1362 59.0122 30.6244 58.3831 30.962 57.5523C31.3056 56.7215 31.4774 55.7041 31.4774 54.5Z" fill="black"/>
<path d="M42.1854 63.7471L36.7963 45.2529H41.7423L44.5363 57.3717H44.69L47.8818 45.2529H51.9145L55.1064 57.3988H55.2601L58.0631 45.2529H63L57.62 63.7471H53.307L49.9705 52.5314H49.8258L46.4893 63.7471H42.1854Z" fill="black"/>
</svg>
