<svg width="600" height="128" viewBox="0 0 600 128" fill="none" xmlns="http://www.w3.org/2000/svg">
<path fill-rule="evenodd" clip-rule="evenodd" d="M172.375 115.476C76.8302 117.115 76.2522 116.662 73.3823 113.297C71.8342 111.482 57.9524 109.141 42.534 108.095C24.0669 106.843 12.9454 104.737 9.94374 101.924C7.43764 99.5757 4.17501 97.6543 2.69353 97.6543C1.21205 97.6543 0 95.0314 0 91.8257C0 87.1797 1.87648 85.997 9.24824 85.997C14.3347 85.997 18.4964 84.6856 18.4964 83.0827C18.4964 81.4798 16.0379 80.1684 13.0332 80.1684C5.13579 80.1684 2.85512 74.4054 10.59 73.9946C14.1645 73.8049 18.039 73.8049 19.2 73.9946C20.3611 74.1845 21.3111 73.0283 21.3111 71.4255C21.3111 69.8226 18.1446 68.5111 14.2744 68.5111C10.4042 68.5111 7.23773 67.1997 7.23773 65.5968C7.23773 63.9939 8.57385 62.6825 10.2068 62.6825C11.7739 62.6825 18.5439 60.095 25.5111 56.8513C22.001 56.2893 19.8893 55.5493 19.8893 54.7417C19.8893 53.1389 24.639 51.8095 30.4443 51.7876C33.6243 51.7756 37.4378 51.4902 40.8727 51.0505C44.7948 49.9269 49.0993 48.9192 53.919 48.0131L55.0726 47.6796L46.6287 45.7268C41.7976 44.6096 45.8512 43.7619 58.1549 43.2819C61.0903 43.0071 62.2928 41.4356 61.3903 39.0001C61.2321 38.5735 61.1516 38.1558 61.1451 37.7513C45.324 38.1414 29.9377 38.9254 22.704 40.0166C7.54121 42.304 3.21913 41.8875 6.5312 38.4581C9.36169 35.5274 29.3359 30.975 37.9679 31.2932C42.4929 31.4601 47.122 30.0439 48.2548 28.1462C49.3875 26.2484 54.5142 24.8194 59.6472 24.9705C60.913 25.0078 62.2012 24.977 63.4479 24.8896C61.6158 22.9791 63.083 22.1908 68.6631 19.5583C69.7342 19.053 70.7561 18.4568 71.6854 17.8126C66.7103 17.7601 59.997 17.8364 52.2578 18.0588C8.06567 19.3283 22.6165 15.0429 71.2673 12.4604C72.9682 12.3701 74.6696 12.2766 76.3623 12.1808C76.3709 12.1002 76.3753 12.021 76.3753 11.9434C76.3753 9.75631 80.4325 7.12672 85.3912 6.09985C93.0984 4.50383 93.609 3.90961 88.9095 2.00605C85.8859 0.781339 122.043 -0.115908 169.259 0.0121759C216.475 0.140224 249.407 1.16256 242.44 2.28394C231.619 4.02582 231.004 4.45431 238.218 5.22527C240.942 5.51637 258.405 5.88828 283.156 6.22626C307.907 5.88828 325.371 5.51637 328.095 5.22527C335.308 4.45431 334.693 4.02582 323.873 2.28394C316.906 1.16256 349.838 0.140224 397.054 0.0121759C444.27 -0.115908 480.427 0.781339 477.403 2.00605C472.704 3.90961 473.214 4.50383 480.922 6.09985C485.88 7.12672 489.937 9.75631 489.937 11.9434C489.937 12.021 489.942 12.1002 489.95 12.1808C491.643 12.2766 493.345 12.3701 495.045 12.4604C543.696 15.0429 558.247 19.3283 514.055 18.0588C506.316 17.8364 499.603 17.7601 494.627 17.8126C495.557 18.4568 496.579 19.053 497.65 19.5583C503.23 22.1908 504.697 22.9791 502.865 24.8896C504.112 24.977 505.4 25.0078 506.666 24.9705C511.799 24.8194 516.925 26.2484 518.058 28.1462C519.191 30.0439 523.82 31.4601 528.345 31.2932C534.266 31.0749 545.524 33.1484 552.925 35.4182C553.893 35.6505 554.637 35.8955 555.164 36.1537C557.43 36.9555 559.101 37.7536 559.782 38.4581C559.947 38.6295 560.094 38.7934 560.221 38.9497C562.41 39.658 565.024 40.1053 567.441 40.1053C574.267 40.1053 575.402 41.0892 574.179 45.9339C573.056 50.3783 574.092 51.7625 578.542 51.7625C581.75 51.7625 583.543 52.6256 582.524 53.6802C582.231 53.9836 582.075 54.4229 582.044 54.9481C593.138 55.7332 600.372 56.7863 599.687 57.9756C598.919 59.3062 592.668 61.2699 585.505 62.4733C585.57 63.0071 585.282 63.2482 584.618 63.0757C582.189 62.4438 574.937 65.6106 570.393 68.6314C570.218 69.8059 568.742 71.3021 566.559 72.6753C566.71 73.8576 568.864 74.1498 571.476 73.3087C575.167 72.1204 574.99 72.6264 570.772 75.3276C569.842 75.923 568.872 76.6442 567.935 77.4201C570.895 77.3142 574.556 77.1388 578.982 76.9002C593.678 76.1076 602.789 76.1939 599.229 77.092C594.429 78.3024 593.524 79.6547 595.729 82.3212C598.013 85.084 594.975 86.7089 582.625 89.3293C565.251 93.0162 554.233 96.9942 552.735 99.8959C555.865 100.973 558.106 102.477 558.106 103.888C558.106 104.15 557.151 104.386 555.421 104.589C555.238 108.115 546.091 112.169 532.345 114.216C523.482 115.535 518.134 116.796 520.46 117.018C523.921 117.349 523.824 117.962 519.921 120.401C517.3 122.04 507.494 122.842 498.131 122.185C487.967 121.47 481.125 122.134 481.15 123.833C481.203 127.363 436.029 128.119 399.536 125.201C346.284 120.942 332.995 120.403 341.794 122.86C348.771 124.807 347.366 125.215 333.874 125.159C324.854 125.122 316.903 124.166 316.204 123.036C315.599 122.055 313.056 121.234 308.377 120.56C301.805 121.543 297.49 122.462 296.866 123.107C296.062 123.939 292.238 124.621 288.368 124.621C279.508 124.621 281.837 121.931 292.415 119.944C293.412 119.757 294.387 119.558 295.304 119.357C281.274 118.506 259.831 118.109 229.8 118.1C196.293 118.089 177.953 117.261 172.375 115.476ZM545.539 53.5739C553.998 53.6849 562.395 53.9231 569.962 54.2638C570.388 52.0845 569.176 50.4376 567.254 50.5969C565.319 50.7572 556.453 51.1251 547.551 51.4138C543.668 51.5399 540.752 51.6895 538.682 51.9041C541.754 52.1518 544.273 52.7737 545.539 53.5739ZM53.6655 30.142C53.6655 29.4352 54.9322 28.0463 56.4803 27.0557C58.0284 26.065 59.2949 26.6434 59.2949 28.3408C59.2949 30.0383 58.0284 31.4271 56.4803 31.4271C54.9322 31.4271 53.6655 30.8488 53.6655 30.142ZM466.013 5.19826C465.056 3.59539 465.615 2.28394 467.254 2.28394C468.894 2.28394 470.235 3.59539 470.235 5.19826C470.235 6.80114 469.677 8.11259 468.994 8.11259C468.311 8.11259 466.97 6.80114 466.013 5.19826ZM385.092 3.0269C399.411 2.49796 422.843 2.49796 437.163 3.0269C451.483 3.55585 439.767 3.98859 411.127 3.98859C382.488 3.98859 370.772 3.55581 385.092 3.0269ZM512.647 30.142C512.647 29.4352 511.381 28.0463 509.832 27.0557C508.284 26.065 507.018 26.6434 507.018 28.3408C507.018 30.0383 508.284 31.4271 509.832 31.4271C511.381 31.4271 512.647 30.8488 512.647 30.142ZM100.3 5.19826C101.256 3.59539 100.698 2.28394 99.0583 2.28394C97.4189 2.28394 96.0775 3.59539 96.0775 5.19826C96.0775 6.80114 96.6361 8.11259 97.3188 8.11259C98.0013 8.11259 99.3428 6.80114 100.3 5.19826ZM181.221 3.0269C166.901 2.49796 143.469 2.49796 129.15 3.0269C114.83 3.55585 126.546 3.98859 155.185 3.98859C183.825 3.98859 195.541 3.55581 181.221 3.0269ZM98.0104 110.169C94.5274 109.474 88.8276 109.474 85.3444 110.169C81.8614 110.864 84.7112 111.432 91.6774 111.432C98.6437 111.432 101.494 110.864 98.0104 110.169Z" fill="#F5CEB9"/>
<path d="M232.034 75.0001H223.307L227.171 51.7273H235.636C238 51.7273 239.97 52.2084 241.546 53.1705C243.129 54.1251 244.246 55.4963 244.898 57.2841C245.557 59.0644 245.682 61.1857 245.273 63.6478C244.879 66.0266 244.087 68.0644 242.898 69.7614C241.716 71.4584 240.201 72.7576 238.352 73.6591C236.504 74.5531 234.398 75.0001 232.034 75.0001ZM229.716 70.2046H232.386C233.689 70.2046 234.841 69.9698 235.841 69.5001C236.849 69.0228 237.682 68.2614 238.341 67.216C239 66.1629 239.47 64.7804 239.75 63.0682C240.023 61.4319 240.011 60.1402 239.716 59.1932C239.428 58.2387 238.867 57.5569 238.034 57.1478C237.208 56.7311 236.129 56.5228 234.796 56.5228H232L229.716 70.2046Z" fill="#DEA88B"/>
<path d="M254.818 75.3296C252.977 75.3296 251.458 74.9508 250.261 74.1932C249.072 73.4357 248.235 72.3788 247.75 71.0228C247.265 69.6667 247.171 68.091 247.466 66.2955C247.761 64.5076 248.371 62.9394 249.296 61.591C250.22 60.2425 251.402 59.1932 252.841 58.4432C254.28 57.6932 255.913 57.3182 257.739 57.3182C259.572 57.3182 261.083 57.697 262.273 58.4546C263.47 59.2122 264.311 60.269 264.796 61.6251C265.288 62.9811 265.386 64.5607 265.091 66.3637C264.796 68.1516 264.182 69.7198 263.25 71.0682C262.318 72.4091 261.136 73.4546 259.705 74.2046C258.273 74.9546 256.644 75.3296 254.818 75.3296ZM255.443 71.1364C256.125 71.1364 256.735 70.9319 257.273 70.5228C257.818 70.1137 258.277 69.5417 258.648 68.8069C259.019 68.072 259.284 67.2198 259.443 66.2501C259.602 65.2955 259.617 64.4584 259.489 63.7387C259.367 63.0114 259.11 62.447 258.716 62.0455C258.322 61.6364 257.788 61.4319 257.114 61.4319C256.432 61.4319 255.818 61.6402 255.273 62.0569C254.727 62.466 254.269 63.0379 253.898 63.7728C253.534 64.5001 253.273 65.3523 253.114 66.3296C252.955 67.2841 252.936 68.1213 253.057 68.841C253.178 69.5607 253.439 70.1251 253.841 70.5341C254.242 70.9357 254.777 71.1364 255.443 71.1364Z" fill="#DEA88B"/>
<path d="M273.369 75.0001L276.278 57.5455H281.835L278.926 75.0001H273.369ZM279.449 55.5001C278.661 55.5001 278.021 55.2387 277.528 54.716C277.036 54.1932 276.843 53.5682 276.949 52.841C277.055 52.1061 277.426 51.4811 278.063 50.966C278.699 50.4508 279.407 50.1932 280.188 50.1932C280.975 50.1932 281.608 50.4508 282.085 50.966C282.57 51.4811 282.76 52.1061 282.653 52.841C282.563 53.5682 282.199 54.1932 281.563 54.716C280.934 55.2387 280.229 55.5001 279.449 55.5001Z" fill="#DEA88B"/>
<path d="M295.225 57.5455L294.531 61.6364H283.52L284.213 57.5455H295.225ZM287.202 53.3637H292.759L290.077 69.5114C290.024 69.8523 290.031 70.1288 290.1 70.341C290.175 70.5455 290.312 70.6932 290.509 70.7841C290.713 70.8675 290.963 70.9091 291.259 70.9091C291.463 70.9091 291.69 70.8864 291.94 70.841C292.19 70.7955 292.38 70.7614 292.509 70.7387L292.69 74.7501C292.395 74.8334 291.997 74.9281 291.497 75.0341C291.005 75.1478 290.429 75.2198 289.77 75.2501C288.437 75.3031 287.334 75.1478 286.463 74.7841C285.599 74.4129 284.99 73.8372 284.634 73.0569C284.285 72.2766 284.217 71.2993 284.429 70.1251L287.202 53.3637Z" fill="#DEA88B"/>
<path d="M309.276 65.0455L307.617 75.0001H302.06L304.969 57.5455H310.253L309.73 60.7501H309.923C310.469 59.6819 311.26 58.8448 312.298 58.2387C313.336 57.6251 314.503 57.3182 315.798 57.3182C317.018 57.3182 318.037 57.591 318.855 58.1364C319.673 58.6819 320.253 59.447 320.594 60.4319C320.935 61.4091 320.992 62.5569 320.764 63.8751L318.901 75.0001H313.344L315.014 64.966C315.181 64.0038 315.064 63.2501 314.662 62.7046C314.268 62.1516 313.624 61.8751 312.73 61.8751C312.147 61.8751 311.613 62.0038 311.128 62.2614C310.651 62.5114 310.249 62.8713 309.923 63.341C309.605 63.8107 309.389 64.3788 309.276 65.0455Z" fill="#DEA88B"/>
<path d="M330.443 75.3296C328.602 75.3296 327.083 74.9508 325.886 74.1932C324.697 73.4357 323.86 72.3788 323.375 71.0228C322.89 69.6667 322.796 68.091 323.091 66.2955C323.386 64.5076 323.996 62.9394 324.921 61.591C325.845 60.2425 327.027 59.1932 328.466 58.4432C329.905 57.6932 331.538 57.3182 333.364 57.3182C335.197 57.3182 336.708 57.697 337.898 58.4546C339.095 59.2122 339.936 60.269 340.421 61.6251C340.913 62.9811 341.011 64.5607 340.716 66.3637C340.421 68.1516 339.807 69.7198 338.875 71.0682C337.943 72.4091 336.761 73.4546 335.33 74.2046C333.898 74.9546 332.269 75.3296 330.443 75.3296ZM331.068 71.1364C331.75 71.1364 332.36 70.9319 332.898 70.5228C333.443 70.1137 333.902 69.5417 334.273 68.8069C334.644 68.072 334.909 67.2198 335.068 66.2501C335.227 65.2955 335.242 64.4584 335.114 63.7387C334.992 63.0114 334.735 62.447 334.341 62.0455C333.947 61.6364 333.413 61.4319 332.739 61.4319C332.057 61.4319 331.443 61.6402 330.898 62.0569C330.352 62.466 329.894 63.0379 329.523 63.7728C329.159 64.5001 328.898 65.3523 328.739 66.3296C328.58 67.2841 328.561 68.1213 328.682 68.841C328.803 69.5607 329.064 70.1251 329.466 70.5341C329.867 70.9357 330.402 71.1364 331.068 71.1364Z" fill="#DEA88B"/>
<path d="M345.006 75.0001L343.369 57.5455H348.949L349.438 68.7273H349.585L353.972 57.5455H359.415L360.142 68.6478H360.29L364.438 57.5455H370.017L362.551 75.0001H356.608L355.563 64.8296H355.369L350.96 75.0001H345.006Z" fill="#DEA88B"/>
<path d="M370.259 75.3296C369.433 75.3296 368.759 75.0417 368.236 74.466C367.713 73.8902 367.486 73.1932 367.554 72.3751C367.63 71.572 367.986 70.8864 368.622 70.3182C369.259 69.7501 369.986 69.466 370.804 69.466C371.584 69.466 372.24 69.7501 372.77 70.3182C373.308 70.8864 373.539 71.572 373.463 72.3751C373.418 72.9205 373.232 73.4167 372.906 73.8637C372.588 74.3107 372.194 74.6667 371.724 74.9319C371.255 75.197 370.766 75.3296 370.259 75.3296Z" fill="#DEA88B"/>
<path d="M100.251 43.0211C114.794 44.5864 129.49 44.394 143.976 42.5415C145.854 42.2722 147.733 42.0029 149.539 41.7531C150.67 41.6061 151.961 41.1822 152.99 41.5305C153.175 41.6371 153.321 41.5981 153.306 41.836C153.273 42.0011 152.86 42.5017 152.701 42.7786C151.605 43.9306 150.12 44.7966 148.82 45.7692C142.752 50.2043 136.571 54.5133 130.391 58.8223C124.191 63.0585 118.05 67.5131 113.712 73.7474C113.32 74.3207 113.369 75.0878 113.744 75.6117C115.403 78.6004 119.054 78.2465 121.957 78.0148C125.865 77.748 129.753 77.4083 133.661 77.1415C136.948 76.8851 140.414 76.4245 143.682 77.2654C146.125 77.9373 148.181 79.4934 149.586 81.5357C151.143 83.8497 151.923 86.7618 151.421 89.5492C151.219 90.5399 151.73 91.5734 152.74 91.849C153.658 92.0712 154.837 91.5212 155.04 90.5305C156.183 84.6059 153.408 78.3267 148.273 75.1771C145.372 73.3793 141.983 72.961 138.638 72.999C134.763 73.1007 130.822 73.5327 126.986 73.78C124.758 73.9089 122.549 74.1106 120.321 74.2395C119.627 74.2695 118.86 74.3189 118.219 74.2566C117.578 74.1942 117.228 74.0539 117.038 73.6366C117.048 74.258 117.059 74.8794 117.069 75.5009C120.961 69.9323 126.671 65.9054 132.201 62.0827C138.726 57.6034 145.158 53.0707 151.552 48.3925C153.972 46.6515 158.082 44.2239 157.034 40.6032C156.005 37.0554 151.845 37.5459 149.073 37.9764C141.505 39.1459 133.893 39.859 126.31 40.0962C117.649 40.3882 109.05 40.0392 100.46 39.1416C99.4163 39.0312 98.5922 40.0323 98.5351 40.984C98.318 42.2126 99.2074 42.9106 100.251 43.0211Z" fill="#CE9475"/>
<path d="M137.415 86.2014C139.717 86.053 142.081 86.4337 144.146 87.4411C145.215 87.9351 146.157 88.5408 147.066 89.3117C147.975 90.0826 148.685 90.9848 149.521 91.7751C151.655 93.6224 154.582 93.7742 156.648 91.5821C158.641 89.4095 159.501 86.2138 160.59 83.5811C161.941 80.176 163.384 76.8243 164.734 73.4193C165.102 72.4624 164.334 71.3418 163.416 71.1195C162.313 70.7907 161.484 71.4811 161.116 72.438C159.659 76.0277 158.182 79.5445 156.798 83.1147C156.203 84.6787 155.627 86.3156 154.847 87.773C154.421 88.5115 153.767 89.8571 152.718 89.436C151.668 89.0149 150.822 87.6031 150.005 86.8855C148.893 85.9352 147.707 85.0045 146.361 84.3506C143.65 82.9702 140.566 82.2359 137.498 82.4338C136.493 82.469 135.611 83.2517 135.573 84.2762C135.535 85.3006 136.41 86.2366 137.415 86.2014Z" fill="#CE9475"/>
<path d="M460.293 41.2088C451.757 54.3255 443.325 67.4422 434.789 80.5588C432.915 83.3696 437.495 85.9721 439.265 83.1614C447.801 70.0447 456.233 56.928 464.77 43.8113C466.643 41.0006 462.167 38.3981 460.293 41.2088Z" fill="#CE9475"/>
<path d="M430.208 49.641C430.104 61.9249 430.104 74.1046 430 86.3885C430 88.0541 431.666 89.4074 433.331 88.8869C441.659 86.3885 449.779 83.0573 457.587 79.2055C460.606 77.7481 457.899 73.1677 454.984 74.7292C447.593 78.4769 439.89 81.4958 431.874 83.8901C433.019 84.7229 434.06 85.5557 435.205 86.3885C435.309 74.1046 435.309 61.9249 435.413 49.641C435.413 46.3098 430.208 46.3098 430.208 49.641Z" fill="#CE9475"/>
</svg>
